<svg width="1058" height="785" viewBox="0 0 1058 785" fill="none" xmlns="http://www.w3.org/2000/svg">
<g id="Frame" clip-path="url(#clip0)">
<path id="background" d="M209.74 115.43C204.26 122.08 202.15 131.43 199.79 140.22C180.79 211.06 133.97 268.04 80.65 308.74C58.07 325.98 30.58 349.1 35.52 380.01C38.18 396.61 49.85 408.83 58.52 422.35C76.71 450.66 82.61 489.14 73.94 523.03C64.08 561.59 36.52 597.57 45.05 636.56C50.31 660.56 68.17 677.64 85.34 692.32C112.13 715.21 139.77 736.65 168.26 756.64C187.36 770.04 207.68 783.08 229.94 784.78C249.54 786.28 268.74 778.83 287.35 771.48C303.61 765.05 320.28 758.36 333.41 745.48C341.98 737.07 348.81 726.22 358.33 719.34C380.69 703.18 409.41 713.42 435.05 720.34C495.55 736.58 560.3 730.65 617.87 703.6C706.18 662.1 773.49 574.95 859.87 528.19C897.01 508.08 937.41 495.6 971.8 469.7C991.17 454.95 1007.82 436.94 1021 416.46C1047 376.35 1061.06 325.21 1057 275.15C1052.94 225.09 1030.19 176.85 994.46 148.59C956.21 118.34 907.9 112.69 864.38 94.53C819.44 75.77 779.46 43.53 734.95 23.4C662 -9.50001 578.08 -7.63 506.68 28.49C458.24 52.99 409.14 110.15 355.19 114.49C316.75 117.49 239.76 79.01 209.74 115.43Z" fill="url(#paint0_linear)"/>
<g id="man-bike">
<path id="Vector" d="M344.312 512.157L330.966 525.681L373.674 567.825L387.02 554.301L344.312 512.157Z" fill="#535461"/>
<path id="Vector_2" d="M354.49 491.99C354.49 491.99 379.28 478.91 388.86 470.49C394.63 465.44 400.83 460.92 407.39 456.96L438.49 438.03L503.49 433.03L506.49 444.03C506.49 444.03 511.49 460.03 461.49 474.03C411.49 488.03 386.49 510.03 386.49 510.03C386.49 510.03 354.49 520.99 354.49 491.99Z" fill="#DB8B8B"/>
<path id="Vector_3" opacity="0.1" d="M389.14 507.86C387.37 509.21 386.49 509.99 386.49 509.99C386.49 509.99 354.49 520.99 354.49 491.99C354.49 491.99 356.04 491.17 358.49 489.8C363.52 498 372.45 502.99 382.07 502.99H385.46L389.14 507.86Z" fill="black"/>
<path id="Vector_4" opacity="0.05" d="M505.55 449.55C502.77 455.44 493.18 465.12 461.49 473.99C420.88 485.36 396.76 501.99 389.14 507.86C387.37 509.21 386.49 509.99 386.49 509.99C386.49 509.99 354.49 520.99 354.49 491.99C354.49 491.99 356.04 491.17 358.49 489.8C365.92 485.73 381.65 476.8 388.83 470.45C394.6 465.4 400.8 460.88 407.36 456.92L438.46 437.99L450.04 437.1L503.46 432.99L506.46 443.99C506.46 443.99 507.16 446.14 505.55 449.55Z" fill="black"/>
<path id="Vector_5" d="M354.99 485.49L328.49 502.99L406.09 567.99C406.09 567.99 417.49 560.99 411.49 552.99C411.49 552.99 391.49 535.99 390.49 511.99L384.49 503.99H381.1C369.35 503.99 358.88 496.58 354.99 485.49Z" fill="#ABB1D1"/>
<path id="Vector_6" opacity="0.1" d="M505.55 449.55C489.55 441.82 450.49 440.99 450.49 440.99L450.07 437.1L503.49 432.99L506.49 443.99C506.49 443.99 507.16 446.14 505.55 449.55Z" fill="black"/>
<path id="Vector_7" d="M450.49 438.99C450.49 438.99 497.49 439.99 509.49 449.99L503.49 328.99H438.49L450.49 438.99Z" fill="#ABB1D1"/>
<path id="Vector_8" d="M488.25 364.95C488.25 364.95 605.9 360.95 608.3 376.16C610.7 391.37 490.65 384.96 490.65 384.96C490.65 384.96 481.05 375.35 488.25 364.95Z" fill="#535461"/>
<path id="Vector_9" opacity="0.05" d="M488.25 364.95C488.25 364.95 605.9 360.95 608.3 376.16C610.7 391.37 490.65 384.96 490.65 384.96C490.65 384.96 481.05 375.35 488.25 364.95Z" fill="black"/>
<path id="Vector_10" d="M393.01 425.78H372.2V606.66H393.01V425.78Z" fill="#7F7F82"/>
<path id="Vector_11" opacity="0.1" d="M393.01 425.77V439.7C386.09 440.6 379.01 441.17 372.2 441.39V425.77H393.01Z" fill="black"/>
<path id="Vector_12" d="M391.45 410.78C388.53 410.55 385.63 410.16 382.75 409.61C371.47 407.45 343.03 402.92 335.38 410.61C325.78 420.21 328.98 437.02 354.59 439.42C380.2 441.82 424.22 435.42 433.03 425.81C433.03 425.77 417.1 412.75 391.45 410.78Z" fill="#535461"/>
<path id="Vector_13" d="M387.41 475.4L605.91 407.37L613.11 424.18L389.01 501.01L387.41 475.4Z" fill="#7F7F82"/>
<path id="Vector_14" d="M452.24 582.65L609.91 427.38L618.71 440.18L468.24 597.05L452.24 582.65Z" fill="#7F7F82"/>
<path id="Vector_15" opacity="0.1" d="M653.59 529.85C648.59 531.14 643.72 532.87 639.03 535.02L629.47 508.31C634.49 506.12 639.65 504.29 644.93 502.84L653.59 529.85Z" fill="black"/>
<path id="Vector_16" d="M680.34 608.26L669.14 614.66L591 396.33L587.5 386.56L605.91 376.15L610.52 390.53L680.34 608.26Z" fill="#7F7F82"/>
<path id="Vector_17" opacity="0.1" d="M610.52 390.53L591 396.33L587.5 386.56L605.91 376.15L610.52 390.53Z" fill="black"/>
<path id="Vector_18" d="M491.45 407.37L601.1 369.75C601.1 369.75 620.31 372.15 613.1 388.16L502.66 420.97C502.66 420.97 485.86 422.57 491.45 407.37Z" fill="#535461"/>
<path id="Vector_19" opacity="0.1" d="M367.8 615.86C367.8 621.99 367.32 628.12 366.38 634.18C356.78 633.49 346.86 632.49 337.14 631.49C339.3 619.6 339.03 607.39 336.35 595.61C345.82 593.61 355.49 591.7 364.93 589.97C366.84 598.47 367.8 607.15 367.8 615.86Z" fill="black"/>
<path id="Vector_20" opacity="0.1" d="M393.01 585.38V606.65H372.2V588.65C379.4 587.4 386.4 586.29 393.01 585.38Z" fill="black"/>
<path id="Vector_21" d="M258.55 615.49C258.55 615.49 426.63 571.49 440.23 588.28C453.83 605.07 468.24 627.49 425.86 635.49C383.48 643.49 255.38 621.88 255.38 621.88L258.55 615.49Z" fill="#7F7F82"/>
<path id="Vector_22" opacity="0.1" d="M341.22 541.37L319.86 560.92C316.08 556.06 311.8 551.61 307.1 547.64L327.04 526.81C332.17 531.25 336.91 536.12 341.22 541.37Z" fill="black"/>
<path id="Vector_23" d="M252.95 606.66L378.6 475.4L382.61 505.81L259.35 618.66L252.95 606.66Z" fill="#7F7F82"/>
<path id="Vector_24" opacity="0.1" d="M448.23 628.27C462.374 628.27 473.84 616.804 473.84 602.66C473.84 588.516 462.374 577.05 448.23 577.05C434.086 577.05 422.62 588.516 422.62 602.66C422.62 616.804 434.086 628.27 448.23 628.27Z" fill="black"/>
<path id="Vector_25" d="M449.84 628.27C463.984 628.27 475.45 616.804 475.45 602.66C475.45 588.516 463.984 577.05 449.84 577.05C435.696 577.05 424.23 588.516 424.23 602.66C424.23 616.804 435.696 628.27 449.84 628.27Z" fill="#535461"/>
<path id="Vector_26" d="M442.99 600.74C446.01 598.48 450.27 599.1 452.52 602.11L472.85 629.29C475.1 632.3 474.48 636.56 471.48 638.81L471.47 638.82C468.46 641.07 464.2 640.45 461.95 637.45L441.62 610.27C439.37 607.25 439.98 602.99 442.99 600.74Z" fill="#6C63FF"/>
<path id="Vector_27" d="M565.49 246.99L563.11 277.1C562.84 280.91 562.89 284.74 563.26 288.55C563.57 291.92 563.26 297.82 559.96 306.82C555.72 318.32 553.53 330.47 553.49 342.72V376.99L530.49 372.99C530.49 372.99 531.49 324.99 527.49 316.99C523.49 308.99 530.49 237.99 530.49 237.99L565.49 246.99Z" fill="#DB8B8B"/>
<path id="Vector_28" opacity="0.05" d="M564.31 261.91L563.11 277.1C562.84 280.91 562.89 284.74 563.27 288.54C563.58 291.91 563.27 297.81 559.97 306.82C555.73 318.32 553.54 330.47 553.5 342.72V376.99L530.5 372.99C530.5 372.99 531.5 324.99 527.5 316.99C524.67 311.32 527.35 274.05 529.16 252.78C529.91 244.03 530.5 237.99 530.5 237.99L565.5 246.99L564.31 261.91Z" fill="black"/>
<path id="Vector_29" d="M451.51 476.99L442.86 526.19C441.77 532.76 440.1 539.22 437.86 545.49C432.79 559.35 436.03 578.78 438.49 589.38C439.58 594.06 440.49 597.02 440.49 597.02L414.49 611.02L406.49 605.02V601.02L405.49 512.02C399.49 498.02 401.49 477.02 405.49 469.02C406.63 466.39 407.43 463.63 407.87 460.8C409.87 450.08 410.49 435.02 410.49 435.02C410.49 435.02 426.49 408.02 445.49 426.02C452.49 432.65 455.15 441.32 455.71 449.62C456.69 463.83 451.51 476.99 451.51 476.99Z" fill="#DB8B8B"/>
<path id="Vector_30" opacity="0.1" d="M455.71 449.59C441.84 457.83 417.71 460.16 407.87 460.77C409.87 450.05 410.49 434.99 410.49 434.99C410.49 434.99 426.49 407.99 445.49 425.99C452.49 432.62 455.15 441.29 455.71 449.59Z" fill="black"/>
<path id="Vector_31" d="M489.49 424.99C478.86 430.65 468.81 437.35 459.49 444.99C443.49 457.99 403.49 458.99 403.49 458.99V443.99C404.49 425.99 387.49 405.99 364.49 349.99C349.8 314.23 353.87 293.99 358.73 283.99C361.49 278.34 364.49 275.99 364.49 275.99L489.49 299.99L493.96 313.39L503.49 341.99C503.49 341.99 468.49 343.99 462.49 346.99C456.49 349.99 460.49 376.99 460.49 376.99C454.49 404.99 489.49 424.99 489.49 424.99Z" fill="#ABB1D1"/>
<path id="Vector_32" opacity="0.1" d="M565.49 246.99L564.31 261.91C546.91 266.91 534.49 250.99 534.49 250.99C532.67 251.48 530.89 252.07 529.15 252.78C529.9 244.03 530.49 237.99 530.49 237.99L565.49 246.99Z" fill="black"/>
<path id="Vector_33" opacity="0.1" d="M493.96 313.39C493.49 318.06 493.49 320.99 493.49 320.99C493.49 320.99 470.49 339.99 431.49 310.99C392.49 281.99 357.49 289.99 357.49 289.99C357.49 289.99 357.9 287.67 358.73 283.99C361.49 278.34 364.49 275.99 364.49 275.99L489.49 299.99L493.96 313.39Z" fill="black"/>
<path id="Vector_34" d="M578.97 207.94C576.36 228.29 575.49 253.94 575.49 253.94C552.49 271.94 534.49 248.94 534.49 248.94C512.77 254.77 502.56 273.78 497.75 290.37C495.17 299.34 493.74 308.61 493.49 317.94C493.49 317.94 487.41 322.94 476.21 323.94C465.62 324.83 450.44 322.07 431.49 307.94C392.49 278.94 357.49 286.94 357.49 286.94C357.49 286.94 364.49 246.94 380.49 234.94C396.49 222.94 408.49 207.94 428.49 161.94C448.49 115.94 489.49 126.94 489.49 126.94C489.49 126.94 491.49 117.94 528.49 126.94C537.5 129.3 545.84 133.72 552.86 139.85C572.65 156.49 582.25 182.3 578.97 207.94Z" fill="white"/>
<path id="Vector_35" d="M541.86 149.49C541.81 150.82 541.7 152.3 541.52 153.95C539.52 171.95 537.52 169.95 515.52 173.95C501.84 176.44 494.73 165.01 491.31 156.01C490.07 152.75 489.14 149.38 488.52 145.95L536.52 137.95C536.52 137.95 542.27 136.34 541.86 149.49Z" fill="#DB8B8B"/>
<path id="Vector_36" opacity="0.05" d="M497.75 290.42C495.17 299.39 493.74 308.66 493.49 317.99C493.49 317.99 487.41 322.99 476.21 323.99C475.89 323.35 475.65 322.68 475.49 321.99C473.49 312.99 458.49 296.99 458.49 296.99C448.49 287.99 446.49 271.99 446.49 271.99L429.99 223.49L424.49 218.99C424.49 218.99 447.49 200.99 467.49 215.99C487.49 230.99 481.49 262.99 481.49 262.99L485.49 273.99C489.64 277.49 493.86 283.66 497.75 290.42Z" fill="black"/>
<path id="Vector_37" d="M427.49 217.99L449.49 270.99C449.49 270.99 451.49 286.99 461.49 295.99C461.49 295.99 476.49 311.99 478.49 320.99C480.49 329.99 508.49 353.99 508.49 353.99C508.49 353.99 534.49 377.99 536.49 386.99C536.49 386.99 560.49 393.99 557.49 407.99C557.49 407.99 575.49 389.99 557.49 372.99C539.49 355.99 515.49 320.99 515.49 320.99C515.49 320.99 501.49 283.99 488.49 272.99L484.49 261.99C484.49 261.99 490.49 229.99 470.49 214.99C450.49 199.99 427.49 217.99 427.49 217.99Z" fill="#DB8B8B"/>
<path id="Vector_38" opacity="0.1" d="M440.49 596.99L414.49 610.99L406.49 604.99V600.99C415.47 600.35 424.2 597.72 432.04 593.28C434.44 591.92 436.7 590.58 438.51 589.4C439.56 594.03 440.49 596.99 440.49 596.99Z" fill="black"/>
<path id="Vector_39" opacity="0.1" d="M470.49 175.99L484.49 230.99C484.49 230.99 441.49 237.99 432.49 230.99C423.49 223.99 406.49 221.99 406.49 221.99C406.49 221.99 424.49 169.99 434.49 163.99C444.49 157.99 470.49 175.99 470.49 175.99Z" fill="black"/>
<path id="Vector_40" d="M470.49 173.99L484.49 228.99C484.49 228.99 441.49 235.99 432.49 228.99C423.49 221.99 406.49 219.99 406.49 219.99C406.49 219.99 424.49 167.99 434.49 161.99C444.49 155.99 470.49 173.99 470.49 173.99Z" fill="white"/>
<path id="Vector_41" opacity="0.1" d="M541.86 148.49C530.52 164.14 508.64 167.64 492.98 156.3C492.41 155.89 491.85 155.46 491.31 155.01C490.07 151.75 489.14 148.38 488.52 144.95L536.52 136.95C536.52 136.95 542.27 135.34 541.86 148.49Z" fill="black"/>
<path id="Vector_42" d="M548.49 126.99C548.49 146.32 532.82 161.99 513.49 161.99C494.16 161.99 478.49 146.32 478.49 126.99C478.49 126.41 478.49 125.83 478.49 125.25C478.97 105.92 495.03 90.64 514.36 91.12C533.69 91.6 548.97 107.66 548.49 126.99Z" fill="#DB8B8B"/>
<path id="Vector_43" opacity="0.05" d="M384.99 234.49C384.99 234.49 410.99 241.49 418.99 259.49C426.99 277.49 448.63 280.78 448.63 280.78" fill="black"/>
<path id="Vector_44" d="M482.99 630.49H422.99V649.49H482.99V630.49Z" fill="#535461"/>
<path id="Vector_45" d="M432 595.23C437.37 592.23 442.08 589.23 442.49 587.99C442.49 587.99 456.04 602.29 468.11 606.73C472.17 608.23 476.05 610.16 479.7 612.49C484.48 615.49 491.3 619.02 497.49 619.02C497.49 619.02 511.49 631.02 484.49 633.02C457.49 635.02 394.49 628.02 394.49 628.02L398.49 603.02C410.17 603.71 421.81 601 432 595.23Z" fill="#ABB1D1"/>
</g>
<g id="right-wheel">
<path id="Vector_46" d="M679.878 715.78L673.618 617.88L673.488 617.67L667.168 619.87L638.078 704.68L591.828 671.88L665.518 618.47L665.588 618.26L666.008 618.11L670.758 614.66L593.518 571.35L574.588 592.15L577.588 611.65L666.388 613.23V615.23L575.908 613.61L572.508 591.5L598.398 563.05L637.118 517.88L637.808 519.75L646.008 510.75L676.548 516.22V515.01L678.548 515.07V516.58L723.908 524.7L681.578 609.35L675.408 613.82V614.32V614.88L773.218 580.8L761.608 672.01L678.608 619.14L675.688 617.5L724.628 696.39L679.878 715.78ZM675.878 621.44L681.728 712.82L721.778 695.44L675.878 621.44ZM595.308 671.88L637.098 701.51L664.438 621.77L595.308 671.88ZM677.628 616.22L679.718 617.39L760.068 668.59L770.868 583.72L677.628 616.22ZM670.528 609.02L673.038 613.07L673.478 612.75L676.478 518.22L646.738 512.88L638.578 521.88L670.528 609.02ZM595.138 569.97L669.978 611.97L668.678 609.84L637.098 523.57L599.898 564.45L595.138 569.97ZM678.508 518.58L675.508 611.27L680.028 607.99L720.938 526.17L678.508 518.58Z" fill="#535461"/>
<path id="Vector_47" d="M674.788 497C664.178 496.99 653.608 498.41 643.378 501.24C638.098 502.69 632.938 504.52 627.918 506.71C568.278 532.56 540.888 601.87 566.738 661.51C592.588 721.15 661.898 748.54 721.538 722.69C781.178 696.84 808.568 627.53 782.718 567.89C764.068 524.87 721.668 497.02 674.778 497H674.788ZM674.388 703.09C625.308 703.07 585.548 663.27 585.568 614.19C585.578 579.42 605.868 547.86 637.488 533.41C642.178 531.26 647.048 529.53 652.048 528.24C699.548 515.91 748.038 544.42 760.368 591.92C772.698 639.42 744.188 687.91 696.688 700.24C689.408 702.13 681.918 703.09 674.388 703.09Z" fill="#535461"/>
<path id="Vector_48" d="M674.388 627.06C681.462 627.06 687.198 621.325 687.198 614.25C687.198 607.175 681.462 601.44 674.388 601.44C667.313 601.44 661.578 607.175 661.578 614.25C661.578 621.325 667.313 627.06 674.388 627.06Z" fill="#535461"/>
</g>
<g id="hat">
<path id="hat_2" d="M453.17 105.34C455.3 112.02 465.53 112.23 470.78 117.15C473.51 119.71 474.78 123.49 477.78 125.77C481.95 128.95 487.97 128.25 493.28 127.49C503.97 125.97 515.45 125.06 525.09 129.67C528.51 131.3 531.58 133.58 535.15 134.91C538.72 136.24 543.15 136.4 546.05 134.04C548.37 132.15 549.22 129.04 551.32 126.96C552.95 125.32 555.22 124.4 557.08 122.96C561.16 119.88 562.92 114.86 564.08 110.06C566.48 100.18 567.17 89.53 563.08 80.16C558.99 70.79 549.15 63.16 538.41 63.65C535.12 63.8 531.91 64.65 528.63 65.01C520.08 65.88 511.63 63.01 503.05 62.52C500.56 62.22 498.04 62.56 495.72 63.52C493.97 64.49 492.47 65.84 491.31 67.47C487.38 72.62 484.69 78.6 483.45 84.95C482.45 89.74 482.4 94.08 476.53 94.82C469.86 95.7 448.66 91.21 453.17 105.34Z" fill="#472727"/>
</g>
<g id="left-wheel">
<path id="Vector_49" d="M259.731 717.781L253.461 619.841L253.331 619.631L247.011 621.831L217.931 706.681L171.681 673.891L245.351 620.481L245.421 620.271L245.841 620.121L250.591 616.671L173.351 573.361L154.431 594.161L157.431 613.661L246.251 615.281V617.281L155.771 615.661L152.351 593.521L178.251 565.061L217.001 519.861L217.691 521.731L225.891 512.731L256.351 518.191V516.981L258.351 517.041V518.551L303.711 526.671L261.421 611.281L255.251 615.751V616.251V616.811L353.051 582.731L341.441 673.941L258.441 621.071L255.521 619.431L304.461 698.311L259.731 717.781ZM255.731 623.441L261.581 714.821L301.631 697.441L255.731 623.441ZM175.151 673.871L216.941 703.501L244.281 623.76L175.151 673.871ZM257.471 618.211L259.561 619.381L339.911 670.581L350.711 585.711L257.471 618.211ZM250.371 611.01L252.881 615.061L253.321 614.741L256.321 520.211L226.581 514.891L218.421 523.891L250.371 611.01ZM174.951 571.951L249.791 613.951L248.491 611.821L216.911 525.551L179.721 566.421L174.951 571.951ZM258.351 520.561L255.351 613.281L259.871 610.001L300.781 528.181L258.351 520.561Z" fill="#535461"/>
<path id="Vector_50" d="M369.421 590.741C365.411 572.921 357.291 556.281 345.711 542.161C341.411 536.911 336.67 532.041 331.54 527.601C282.36 485.141 208.071 490.581 165.601 539.771C123.141 588.951 128.581 663.24 177.771 705.71C226.961 748.18 301.241 742.731 343.711 693.541C358.051 676.931 367.461 656.651 370.871 634.971C371.811 628.911 372.29 622.781 372.29 616.651C372.29 607.941 371.331 599.251 369.421 590.741ZM254.231 705.09C205.211 705.04 165.521 665.261 165.571 616.251C165.621 567.231 205.401 527.541 254.411 527.591C303.431 527.641 343.12 567.421 343.07 616.431C343.06 621.741 342.581 627.051 341.631 632.281C333.891 674.471 297.121 705.1 254.231 705.09Z" fill="#535461"/>
<path id="Vector_51" d="M266.883 618.309C268.016 611.326 263.274 604.746 256.29 603.612C249.307 602.479 242.726 607.221 241.593 614.205C240.46 621.188 245.202 627.768 252.186 628.902C259.169 630.035 265.749 625.293 266.883 618.309Z" fill="#535461"/>
</g>
</g>
<defs>
<linearGradient id="paint0_linear" x1="859" y1="69" x2="-29.5" y2="721.5" gradientUnits="userSpaceOnUse">
<stop stop-color="#FFEF63"/>
<stop offset="0.983065" stop-color="#63FFEC"/>
</linearGradient>
<clipPath id="clip0">
<rect width="1057.69" height="784.98" fill="white"/>
</clipPath>
</defs>
</svg>
